<svg xmlns="http://www.w3.org/2000/svg" viewBox="0 0 100 100" width="100" height="100">
<defs><linearGradient id="bg" x1="0" y1="0" x2="1" y2="1"><stop offset="0" stop-color="#171a23"/><stop offset="1" stop-color="#08090d"/></linearGradient></defs>
<rect x="2" y="2" width="96" height="96" rx="24" fill="url(#bg)" stroke="#2C313D" stroke-width="1.4"/>
<g transform="translate(10.000,28.078) scale(0.06175,-0.06175) translate(-50.000,-698.000)">
<path d="M288 -12Q232 -12 188.0 4.5Q144 21 113.0 61.0Q82 101 66.0 169.5Q50 238 50 343Q50 448 66.0 516.5Q82 585 113.0 625.0Q144 665 188.0 681.5Q232 698 288 698Q344 698 387.5 681.5Q431 665 462.0 625.0Q493 585 509.0 516.5Q525 448 525 343Q525 238 509.0 169.5Q493 101 462.0 61.0Q431 21 387.5 4.5Q344 -12 288 -12ZM288 88Q335 88 358.5 113.5Q382 139 390.5 189.5Q399 240 399 315V367Q399 444 390.5 495.5Q382 547 358.5 572.5Q335 598 288 598Q242 598 217.5 572.5Q193 547 184.5 496.5Q176 446 176 370V318Q176 242 184.5 190.5Q193 139 217.5 113.5Q242 88 288 88Z" fill="#CBFB45"/>
<path d="M98 0V100H263V532H97V607Q127 610 167.5 621.5Q208 633 250.0 650.0Q292 667 326 686H386V100H538V0Z" fill="#F4F2EA" transform="translate(517.500,0)"/>
<circle cx="287.500" cy="343.000" r="105.000" fill="#CBFB45"/>
<rect x="1215.500" y="179.700" width="130.000" height="326.600" rx="52.000" fill="#CBFB45"/>
</g></svg>